<svg xmlns="http://www.w3.org/2000/svg" xmlns:xlink="http://www.w3.org/1999/xlink" width="500" zoomAndPan="magnify" viewBox="0 0 375 149.999998" height="200" preserveAspectRatio="xMidYMid meet" version="1.0"><defs><g/></defs><g fill="#10b981" fill-opacity="1"><g transform="translate(-9.522556, 121.499995)"><g><path d="M 7.75 0 L 7.75 -69.578125 L 25.96875 -69.578125 L 25.96875 -57.53125 L 26.59375 -57.53125 C 27.851562 -61.78125 29.953125 -64.984375 32.890625 -67.140625 C 35.835938 -69.304688 39.328125 -70.390625 43.359375 -70.390625 C 44.367188 -70.390625 45.414062 -70.347656 46.5 -70.265625 C 47.59375 -70.179688 48.539062 -70.054688 49.34375 -69.890625 L 49.34375 -53.25 C 48.539062 -53.5 47.351562 -53.695312 45.78125 -53.84375 C 44.207031 -53.988281 42.6875 -54.0625 41.21875 -54.0625 C 38.445312 -54.0625 35.9375 -53.453125 33.6875 -52.234375 C 31.4375 -51.023438 29.679688 -49.304688 28.421875 -47.078125 C 27.160156 -44.847656 26.53125 -42.222656 26.53125 -39.203125 L 26.53125 0 Z M 7.75 0 "/></g></g></g><g fill="#10b981" fill-opacity="1"><g transform="translate(42.718495, 121.499995)"><g><path d="M 7.75 0 L 7.75 -69.578125 L 26.53125 -69.578125 L 26.53125 0 Z M 17.140625 -78.578125 C 14.234375 -78.578125 11.757812 -79.519531 9.71875 -81.40625 C 7.6875 -83.300781 6.671875 -85.617188 6.671875 -88.359375 C 6.671875 -91.085938 7.6875 -93.394531 9.71875 -95.28125 C 11.757812 -97.175781 14.234375 -98.125 17.140625 -98.125 C 20.035156 -98.125 22.488281 -97.175781 24.5 -95.28125 C 26.519531 -93.394531 27.53125 -91.085938 27.53125 -88.359375 C 27.53125 -85.617188 26.519531 -83.300781 24.5 -81.40625 C 22.488281 -79.519531 20.035156 -78.578125 17.140625 -78.578125 Z M 17.140625 -78.578125 "/></g></g></g><g fill="#10b981" fill-opacity="1"><g transform="translate(76.999682, 121.499995)"><g><path d="M 7.1875 0 L 7.1875 -11.65625 L 41.59375 -54 L 41.59375 -54.453125 L 8.0625 -54.453125 L 8.0625 -69.578125 L 64.21875 -69.578125 L 64.21875 -56.90625 L 31.578125 -15.5625 L 31.578125 -15.125 L 65.28125 -15.125 L 65.28125 0 Z M 7.1875 0 "/></g></g></g><g fill="#10b981" fill-opacity="1"><g transform="translate(149.469102, 121.499995)"><g><path d="M 35.609375 1.453125 C 29.929688 1.453125 24.894531 0.625 20.5 -1.03125 C 16.113281 -2.695312 12.546875 -5.101562 9.796875 -8.25 C 7.046875 -11.40625 5.3125 -15.1875 4.59375 -19.59375 L 22.3125 -22 C 23.101562 -18.800781 24.632812 -16.378906 26.90625 -14.734375 C 29.175781 -13.097656 32.203125 -12.28125 35.984375 -12.28125 C 39.554688 -12.28125 42.367188 -12.960938 44.421875 -14.328125 C 46.484375 -15.703125 47.515625 -17.4375 47.515625 -19.53125 C 47.515625 -21.34375 46.769531 -22.828125 45.28125 -23.984375 C 43.789062 -25.140625 41.550781 -26.03125 38.5625 -26.65625 L 26.53125 -29.046875 C 19.8125 -30.429688 14.769531 -32.785156 11.40625 -36.109375 C 8.039062 -39.429688 6.359375 -43.71875 6.359375 -48.96875 C 6.359375 -53.375 7.566406 -57.191406 9.984375 -60.421875 C 12.398438 -63.660156 15.800781 -66.160156 20.1875 -67.921875 C 24.582031 -69.691406 29.722656 -70.578125 35.609375 -70.578125 C 41.234375 -70.578125 46.101562 -69.78125 50.21875 -68.1875 C 54.34375 -66.59375 57.65625 -64.320312 60.15625 -61.375 C 62.65625 -58.4375 64.238281 -54.972656 64.90625 -50.984375 L 48.078125 -48.65625 C 47.492188 -51.132812 46.179688 -53.160156 44.140625 -54.734375 C 42.109375 -56.304688 39.390625 -57.09375 35.984375 -57.09375 C 32.828125 -57.09375 30.226562 -56.429688 28.1875 -55.109375 C 26.15625 -53.785156 25.140625 -52.070312 25.140625 -49.96875 C 25.140625 -48.207031 25.832031 -46.726562 27.21875 -45.53125 C 28.601562 -44.332031 30.875 -43.421875 34.03125 -42.796875 L 46.640625 -40.265625 C 53.441406 -38.921875 58.488281 -36.691406 61.78125 -33.578125 C 65.082031 -30.472656 66.734375 -26.421875 66.734375 -21.421875 C 66.734375 -16.847656 65.410156 -12.847656 62.765625 -9.421875 C 60.117188 -5.992188 56.453125 -3.320312 51.765625 -1.40625 C 47.085938 0.5 41.703125 1.453125 35.609375 1.453125 Z M 35.609375 1.453125 "/></g></g></g><g fill="#10b981" fill-opacity="1"><g transform="translate(220.615186, 121.499995)"><g><path d="M 39.265625 1.390625 C 32.160156 1.390625 26.035156 -0.078125 20.890625 -3.015625 C 15.742188 -5.960938 11.773438 -10.125 8.984375 -15.5 C 6.191406 -20.875 4.796875 -27.195312 4.796875 -34.46875 C 4.796875 -41.65625 6.179688 -47.945312 8.953125 -53.34375 C 11.722656 -58.738281 15.628906 -62.957031 20.671875 -66 C 25.710938 -69.050781 31.613281 -70.578125 38.375 -70.578125 C 43.039062 -70.578125 47.367188 -69.820312 51.359375 -68.3125 C 55.347656 -66.800781 58.84375 -64.5625 61.84375 -61.59375 C 64.851562 -58.632812 67.1875 -54.9375 68.84375 -50.5 C 70.507812 -46.070312 71.34375 -40.960938 71.34375 -35.171875 L 71.34375 -29.9375 L 12.28125 -29.9375 L 12.28125 -41.78125 L 62.203125 -41.78125 L 53.4375 -38.6875 C 53.4375 -42.300781 52.867188 -45.429688 51.734375 -48.078125 C 50.597656 -50.722656 48.925781 -52.769531 46.71875 -54.21875 C 44.519531 -55.675781 41.800781 -56.40625 38.5625 -56.40625 C 35.332031 -56.40625 32.582031 -55.664062 30.3125 -54.1875 C 28.039062 -52.71875 26.304688 -50.703125 25.109375 -48.140625 C 23.910156 -45.578125 23.3125 -42.640625 23.3125 -39.328125 L 23.3125 -31 C 23.3125 -27.09375 23.984375 -23.773438 25.328125 -21.046875 C 26.671875 -18.316406 28.570312 -16.25 31.03125 -14.84375 C 33.488281 -13.4375 36.359375 -12.734375 39.640625 -12.734375 C 41.867188 -12.734375 43.894531 -13.054688 45.71875 -13.703125 C 47.550781 -14.359375 49.109375 -15.304688 50.390625 -16.546875 C 51.671875 -17.785156 52.644531 -19.304688 53.3125 -21.109375 L 70.390625 -18.65625 C 69.296875 -14.625 67.332031 -11.101562 64.5 -8.09375 C 61.664062 -5.09375 58.113281 -2.757812 53.84375 -1.09375 C 49.582031 0.5625 44.722656 1.390625 39.265625 1.390625 Z M 39.265625 1.390625 "/></g></g></g><g fill="#10b981" fill-opacity="1"><g transform="translate(296.487496, 121.499995)"><g><path d="M 43.421875 -69.578125 L 43.421875 -55.140625 L 1.203125 -55.140625 L 1.203125 -69.578125 Z M 11.34375 -86.65625 L 30.125 -86.65625 L 30.125 -20.609375 C 30.125 -18.378906 30.613281 -16.75 31.59375 -15.71875 C 32.582031 -14.6875 34.234375 -14.171875 36.546875 -14.171875 C 37.390625 -14.171875 38.472656 -14.242188 39.796875 -14.390625 C 41.117188 -14.546875 42.140625 -14.6875 42.859375 -14.8125 L 44.9375 -0.5 C 43.039062 -0.0390625 41.0625 0.28125 39 0.46875 C 36.945312 0.65625 34.953125 0.75 33.015625 0.75 C 25.878906 0.75 20.484375 -0.894531 16.828125 -4.1875 C 13.171875 -7.488281 11.34375 -12.3125 11.34375 -18.65625 Z M 11.34375 -86.65625 "/></g></g></g><g fill="#10b981" fill-opacity="1"><g transform="translate(343.813207, 121.499995)"><g><path d="M 20.296875 1.203125 C 17.222656 1.203125 14.632812 0.160156 12.53125 -1.921875 C 10.4375 -4.003906 9.390625 -6.578125 9.390625 -9.640625 C 9.390625 -12.660156 10.4375 -15.210938 12.53125 -17.296875 C 14.632812 -19.378906 17.222656 -20.421875 20.296875 -20.421875 C 23.316406 -20.421875 25.875 -19.378906 27.96875 -17.296875 C 30.070312 -15.210938 31.125 -12.660156 31.125 -9.640625 C 31.125 -6.578125 30.070312 -4.003906 27.96875 -1.921875 C 25.875 0.160156 23.316406 1.203125 20.296875 1.203125 Z M 20.296875 1.203125 "/></g></g></g></svg>